<svg width="660" height="160" viewBox="0 0 660 160" fill="none" xmlns="http://www.w3.org/2000/svg">
<g clip-path="url(#clip0_40_2)">
<path d="M150.48 3.41064C152.75 3.78959 154.321 5.1931 155.905 6.84924C168.841 20.6738 181.843 34.4984 194.845 48.2668C197.195 50.765 198.845 53.9089 196.258 57.0247C183.097 71.6633 169.184 85.3194 155.839 99.7334C154.862 100.772 153.648 101.516 152.222 101.993L152.394 103.144C151.127 103.144 149.846 103.13 148.579 103.144L148.724 102.035C145.187 100.66 142.56 96.6738 139.854 93.951L141.702 95.2703C145.768 98.4422 148.592 101.39 154.123 100.87C158.624 95.6914 162.149 89.7405 166.901 84.8282C174.808 76.4212 182.437 67.7335 190.384 59.3826C191.809 57.9931 192.469 56.2949 193.156 54.4282C186.74 62.7791 178.82 69.1089 171.587 76.5334C170.148 75.4808 168.709 74.4282 167.284 73.3756L169.963 73.5019C170.016 65.3194 169.91 57.137 170.016 48.9405L169.039 49.6984C166.676 51.3685 164.3 52.9966 161.951 54.6808C161.977 57.137 161.99 59.5931 161.938 62.0492C161.845 65.7545 161.674 69.4457 161.528 73.137C160.776 71.1299 160.024 69.1229 159.324 67.1019C159.152 63.7896 159.179 60.4633 159.166 57.151C156.077 58.9194 153.094 60.8142 150.229 62.9756C147.312 60.9405 144.382 58.9335 141.478 56.8984C141.359 60.2247 141.293 63.537 140.976 66.8492C140.29 68.5335 139.59 70.2036 138.838 71.8598C139.049 68.4633 139.036 65.0668 138.983 61.6703C138.943 59.4106 138.877 57.151 138.824 54.8913C136.105 52.9264 133.373 50.9756 130.654 49.0106C130.64 52.0843 130.614 55.158 130.627 58.2317C123.222 56.9826 116.305 54.0212 108.992 52.1264C115.262 43.4527 123.658 37.4036 130.601 29.3896C136.646 23.2422 142.243 16.3931 148.619 10.6527C151.034 8.6317 152.75 10.9054 154.559 12.4913C163.205 21.5299 171.613 30.8492 180.365 39.7896C184.84 43.8317 188.918 48.2668 193.182 52.5475C192.126 49.6563 190.37 47.5229 188.285 45.4177C176.458 33.151 165.053 20.365 153.041 8.29485C151.364 8.33696 149.688 8.3931 148.025 8.49135C139.616 16.8703 131.657 25.8106 123.433 34.4001C118.166 40.1966 112.53 45.6142 107.567 51.6913C106.458 51.2422 105.362 50.7931 104.254 50.3159C117.348 36.2247 130.627 22.3299 143.708 8.25275C145.82 6.11942 147.444 3.95801 150.48 3.41064Z" fill="black"/>
<path d="M148.025 8.49117C149.688 8.39292 151.365 8.33678 153.041 8.29468C165.053 20.3649 176.458 33.1508 188.285 45.4175C190.37 47.5228 192.126 49.6561 193.182 52.5473C188.919 48.2666 184.84 43.8315 180.365 39.7894C171.613 30.8491 163.205 21.5298 154.559 12.4912C152.75 10.9052 151.034 8.63152 148.619 10.6526C142.243 16.3929 136.647 23.242 130.601 29.3894C123.658 37.4035 115.262 43.4526 108.992 52.1263L107.567 51.6912C112.53 45.614 118.167 40.1964 123.433 34.3999C131.657 25.8105 139.616 16.8701 148.025 8.49117Z" fill="#818080"/>
<path d="M270.336 12.0139L273.068 12.5894C273.412 19.1297 273.095 25.7262 273.187 32.2806C273.108 74.2736 273.359 116.646 273.068 158.582L270.349 159.13C270.31 110.091 270.323 61.0525 270.336 12.0139Z" fill="#080808"/>
<path d="M130.561 35.1157C137.174 39.7052 143.722 44.3789 150.308 49.0245C157.04 44.5333 163.389 39.4666 170.187 35.0876C170.095 38.6385 169.95 42.1894 169.818 45.7403C167.481 47.3824 165.132 49.0245 162.782 50.6806C154.466 50.0069 146.177 49.7403 137.874 50.8631C135.485 49.1508 133.069 47.4947 130.654 45.8385C130.574 42.2736 130.548 38.6947 130.561 35.1157Z" fill="#FFCD01"/>
<path d="M410.164 40.4492C409.728 43.4667 409.292 46.4843 408.883 49.5018C402.917 46.5825 397.505 45.5439 391.895 50.0492C388.7 49.5439 385.506 49.0527 382.312 48.5895C384.133 45.3474 386.192 42.4562 389.466 40.7579C396.238 37.1509 403.207 38.1053 410.164 40.4492Z" fill="#FFBE00"/>
<path d="M540.936 43.7894C542.956 46.035 543.853 48.6877 544.883 51.5228C541.86 51.7333 538.837 51.9298 535.814 52.0982C533.597 48.4491 530.944 46.4 526.627 47.3122C523.327 47.7754 522.311 50.1894 520.7 52.8561C517.757 52.1964 514.84 51.8315 511.83 51.6631C512.714 48.9263 513.599 46.3438 515.486 44.1965C521.651 36.4912 534.521 36.435 540.936 43.7894Z" fill="#FFBA00"/>
<path d="M416.143 39.0455C421.753 39.1718 427.403 38.849 432.986 39.2701C436.484 39.5367 439.811 40.7718 441.87 43.9438C444.021 47.228 443.507 50.9613 443.454 54.7648C441.157 51.3964 439.085 51.8455 435.56 51.5789C435.085 50.3578 434.544 49.1929 433.923 48.0701C431.429 46.8631 428.181 47.1999 425.489 47.1438C425.449 48.7017 425.436 50.2596 425.436 51.8315C422.545 51.8174 419.654 51.8034 416.763 51.7894C416.763 47.5367 416.526 43.2981 416.143 39.0455Z" fill="#FFBC00"/>
<path d="M448.021 39.0457C451.308 39.0737 454.595 39.0878 457.882 39.0878C457.393 43.3544 457.169 47.579 457.248 51.8737C454.37 51.9018 451.506 51.9299 448.628 51.9579C448.721 47.6351 448.444 43.3404 448.021 39.0457Z" fill="#FFB900"/>
<path d="M466.462 39.1299C469.696 39.0176 472.943 39.0597 476.177 39.0457C475.86 43.3264 475.596 47.593 475.57 51.8878C472.692 51.9158 469.801 51.9439 466.91 51.9579C467.003 47.6632 466.726 43.4106 466.462 39.1299Z" fill="#FFB900"/>
<path d="M481.536 39.0877C488.281 39.3825 495.673 38.2456 502.234 40.014C507.408 41.9088 509.058 46.3439 509.309 51.8316C506.55 51.8316 503.791 51.8176 501.019 51.8316C499.646 46.3439 496.452 47.2842 492.056 47.1719H491.172L491.04 48.9404C488.717 52.4211 485.865 51.7053 482.288 52.1965C482.275 49.207 482.222 46.2456 481.985 43.2702C481.84 41.8807 481.694 40.4772 481.536 39.0877Z" fill="#FFBB00"/>
<path d="M130.654 49.0105C133.373 50.9754 136.105 52.9263 138.824 54.8912C138.877 57.1509 138.943 59.4105 138.983 61.6701C136.211 61.6842 133.426 61.6982 130.654 61.7123C130.64 60.5473 130.64 59.3965 130.627 58.2316C130.614 55.1579 130.64 52.0842 130.654 49.0105Z" fill="#FFA300"/>
<path d="M170.016 48.9404C169.91 57.1369 170.016 65.3194 169.963 73.5018L167.284 73.3755C165.356 73.2913 163.442 73.2211 161.528 73.1369C161.674 69.4457 161.845 65.7545 161.938 62.0492C164.287 61.8948 166.65 61.7404 169 61.6001C169.514 57.586 169.409 53.7124 169.039 49.6983L170.016 48.9404Z" fill="#FF8000"/>
<path d="M382.312 48.5894C385.506 49.0525 388.7 49.5437 391.895 50.049C390.126 53.6981 389.822 56.3788 390.284 60.463C387.961 60.5473 385.625 60.6034 383.288 60.7859L382.061 63.3823C380.635 58.2736 380.899 53.656 382.312 48.5894Z" fill="#FFA900"/>
<path d="M491.04 48.9404C490.934 51.1159 490.842 53.3053 490.789 55.4808C494.868 54.9896 498.92 56.6878 501.019 51.8317C503.791 51.8176 506.55 51.8317 509.309 51.8317C508.477 56.1545 507.368 59.2422 503.765 61.6843C496.861 59.7474 489.68 60.8843 482.262 60.5194C482.262 57.7404 482.275 54.9615 482.288 52.1966C485.866 51.7053 488.717 52.4211 491.04 48.9404Z" fill="#FFA500"/>
<path d="M104.254 50.3157C105.362 50.7929 106.458 51.242 107.567 51.6911L108.992 52.1262C116.305 54.0209 123.222 56.9823 130.627 58.2315C130.64 59.3964 130.64 60.5473 130.654 61.7122C130.654 63.1859 130.64 64.6595 130.64 66.1332C125.572 64.6174 120.516 63.2139 115.289 62.5262C112.754 59.9718 110.444 57.1929 107.87 54.6806C108.728 56.6736 109.679 58.5122 111.144 60.0701C118.972 68.5894 126.786 77.1227 134.64 85.6139C137.359 88.5473 139.511 91.8876 141.702 95.2701L139.854 93.9508C128.357 82.3999 117.308 70.3297 105.904 58.6525C103.25 55.9157 102.907 53.9788 104.254 50.3157Z" fill="#161615"/>
<path d="M137.874 50.8632C146.177 49.7404 154.466 50.007 162.782 50.6807C158.598 53.6141 154.48 56.6316 150.414 59.7334C146.23 56.8 142.019 53.8807 137.874 50.8632Z" fill="#FFB100"/>
<path d="M169.039 49.6982C169.409 53.7123 169.514 57.586 168.999 61.6C166.65 61.7403 164.287 61.8947 161.938 62.0491C161.99 59.593 161.977 57.1368 161.951 54.6807C164.3 52.9965 166.676 51.3684 169.039 49.6982Z" fill="#FFA300"/>
<path d="M416.764 51.7894C419.654 51.8034 422.545 51.8175 425.436 51.8315C425.436 52.9262 425.449 54.035 425.449 55.1297C429.607 54.7227 433.198 56.2385 435.56 51.5789C439.085 51.8455 441.157 51.3964 443.454 54.7648C442.187 57.2771 440.59 59.2139 438.61 61.1087C431.35 60.3508 424.142 60.7999 416.816 60.5332C416.79 57.6139 416.764 54.7087 416.764 51.7894Z" fill="#FFA500"/>
<path d="M448.628 51.958C451.506 51.9299 454.37 51.9018 457.248 51.8738C457.288 55.1861 457.248 58.4983 457.261 61.8106C454.357 61.7826 451.44 61.7966 448.536 61.8247C448.483 58.5264 448.589 55.2562 448.628 51.958Z" fill="#FFA500"/>
<path d="M466.91 51.9579C469.801 51.9438 472.692 51.9158 475.57 51.8877C475.57 55.1438 475.662 58.414 475.636 61.6701C472.771 61.7403 469.907 61.7965 467.056 61.8947C467.016 58.5824 466.897 55.2702 466.91 51.9579Z" fill="#FFA500"/>
<path d="M511.83 51.6631C514.839 51.8315 517.757 52.1964 520.7 52.8561C520.502 55.8315 520.621 58.7087 521.162 61.628C517.994 61.642 515.262 62.035 512.252 63.1017C511.46 59.214 511.328 55.6069 511.83 51.6631Z" fill="#FFA500"/>
<path d="M535.814 52.0981C538.837 51.9297 541.86 51.7332 544.883 51.5227C545.173 54.5543 545.186 57.5859 545.054 60.6174C542.058 60.5332 539.075 60.449 536.065 60.6034C536.184 57.7543 536.118 54.9332 535.814 52.0981Z" fill="#FFA600"/>
<path d="M107.87 54.6806C110.444 57.1929 112.754 59.9718 115.289 62.5262C119.064 66.2034 123.143 69.4596 126.667 73.4315C133.769 81.2069 141.266 88.5613 148.474 96.2104C149.807 96.2385 151.153 96.2666 152.486 96.2947C156.433 92.3087 160.446 88.4631 164.287 84.3789C165.686 82.8911 167.072 81.3894 168.458 79.8876C169.488 78.7789 170.531 77.6561 171.587 76.5332C178.82 69.1087 186.74 62.7789 193.156 54.428C192.469 56.2946 191.809 57.9929 190.384 59.3824C182.437 67.7332 174.808 76.421 166.901 84.828C162.149 89.7403 158.624 95.6911 154.123 100.87C148.592 101.389 145.768 98.442 141.702 95.2701C139.511 91.8876 137.359 88.5473 134.64 85.6139C126.786 77.1227 118.972 68.5894 111.144 60.0701C109.679 58.5122 108.728 56.6736 107.87 54.6806Z" fill="#9C9C9B"/>
<path d="M402.97 55.5509C405.874 55.4527 408.804 55.5088 411.721 55.5228C411.589 60.379 411.536 65.2351 411.589 70.1053C402.521 78.2737 386.43 75.8597 382.061 63.3825L383.288 60.786C385.625 60.6035 387.961 60.5474 390.284 60.4632C391.657 62.4421 392.832 64.5193 395.023 65.5579C397.333 66.793 400.462 66.1334 402.983 66.1193C403.009 62.5965 402.93 59.0737 402.97 55.5509Z" fill="#FF9300"/>
<path d="M141.478 56.8982C144.382 58.9333 147.312 60.9403 150.229 62.9754C153.094 60.814 156.077 58.9192 159.166 57.1508C159.179 60.4631 159.152 63.7894 159.324 67.1017C156.328 68.9964 153.529 71.1438 150.718 73.3192C147.299 71.3964 144.197 69.1087 140.976 66.8491C141.293 63.5368 141.359 60.2245 141.478 56.8982Z" fill="#FF8800"/>
<path d="M98.868 59.0455C101.27 60.5052 103.198 62.9894 105.164 65.0245C117.414 78.1473 129.848 91.2841 142.111 104.393C144.659 107.046 144.646 110.456 142.058 113.081C130.456 125.684 118.351 137.796 106.854 150.526L104.874 150.779C108.821 147.326 111.144 142.624 114.734 138.849C120.371 132.674 125.941 126.428 131.564 120.238C134.838 116.519 138.415 113.979 140.131 109.01C136.264 112.66 133.452 117.235 129.334 120.631C124.225 124.982 119.539 129.782 114.985 134.779C111.184 133.081 107.012 130.989 102.868 130.624C98.802 130.302 94.7496 129.979 90.6972 129.46C97.0464 129.431 103.382 129.558 109.732 129.544C111.25 126.723 112.781 123.888 114.378 121.109C115.843 118.596 117.348 116.126 118.853 113.656C120.014 111.747 121.189 109.853 122.364 107.972C120.872 106.231 119.909 102.779 117.335 103.017C109.256 102.61 101.112 102.947 93.0204 103.017C91.7664 104.758 90.5784 106.568 89.3904 108.365C90.4728 109.81 91.3836 111.902 92.8356 112.912C96.4128 113.572 100.228 113.151 103.831 113.151L105.785 113.474C104.993 115.228 104.214 116.996 103.422 118.751C98.4984 118.877 93.588 119.06 88.6644 119.074C87.2916 116.646 85.932 114.203 84.5856 111.761C80.5464 111.691 76.5864 112.112 72.6 112.716C66.6732 113.291 60.1656 110.091 54.7008 107.986C58.1988 103.495 61.6572 99.0876 65.9868 95.4525C76.1244 86.6245 84.6779 75.8455 94.314 66.456C96.8484 64.1122 98.3268 65.0525 100.544 67.1438C109.283 76.0841 117.559 85.5718 126.416 94.3578C131.274 98.5403 135.564 103.2 139.907 107.944C138.97 105.782 137.98 103.733 136.343 102.049C125.387 90.3017 114.352 78.6525 103.396 66.9052C101.864 65.4455 99.8316 63.1999 97.6668 63.1017C94.5912 62.6525 92.7828 64.9964 90.6972 66.9613C81.312 77.0946 71.7288 87.0315 62.4096 97.235C59.1756 100.575 55.9416 103.663 53.7768 107.958C52.3644 107.902 50.952 107.86 49.5396 107.817C52.3512 103.06 56.0076 99.7192 59.6508 95.6911C70.158 84.4631 80.8104 73.2771 91.2912 61.9929C93.39 59.8315 95.7396 57.5438 98.868 59.0455Z" fill="#010101"/>
<path d="M205.762 59.1018C209.062 61.5158 211.688 65.0386 214.592 67.972C226.591 80.5755 238.366 93.4176 250.457 105.923C250.444 108.239 251.156 110.428 249.493 112.281C241.639 121.207 232.967 129.361 225.139 138.33C221.219 142.793 216.374 145.74 212.903 150.695L211.121 150.414C219.41 141.783 226.67 132.14 235.013 123.565C238.96 118.919 244.253 114.821 246.906 109.333C243.157 112.463 240.623 116.73 236.914 119.93C233.468 123.018 230.023 126.063 226.908 129.53C225.179 128.435 223.423 127.397 221.707 126.288C219.648 123.06 217.51 119.888 215.543 116.604C219.925 113.768 222.077 110.905 223.37 105.586C223.252 103.004 223.054 100.435 222.658 97.8808C220.994 93.9369 218.909 90.6106 214.936 89.0667C206.316 85.6281 195.782 86.9615 186.714 87.1439C186.437 91.3123 186.622 95.4667 187.123 99.6071C190.661 99.565 194.304 99.8597 197.828 99.3404C200.125 98.2036 202.171 96.2246 204.574 95.3965C207.055 95.0457 209.788 96.7158 212.071 97.558C210.038 98.7088 207.847 98.7229 205.669 99.3123C204.692 100.379 203.768 101.502 202.897 102.681C203.491 103.621 204.085 104.561 204.679 105.502L205.326 106.442C207.491 106.737 209.669 106.961 211.834 107.228C210.012 108.73 208.388 110.204 206.012 110.54C203.122 110.456 200.495 107.818 197.934 106.498C194.383 105.895 190.634 106.316 187.031 106.33C186.78 109.783 186.608 113.235 186.595 116.702C186.595 121.067 186.674 125.446 186.767 129.825C190.582 129.965 194.383 129.993 198.211 129.923C196.297 130.288 194.396 130.639 192.482 130.947C190.516 130.583 188.549 130.232 186.582 129.909C186.305 127.888 186.014 125.895 185.856 123.86C185.922 120.884 187.321 116.997 185.222 114.583C177.976 111.046 169.739 109.418 162.03 107.27C166.624 100.954 172.049 95.8878 177.804 90.8211C185.051 83.565 191.928 75.8737 198.99 68.4211C200.297 67.0737 201.696 65.8527 203.32 64.9404C205.339 65.193 206.699 66.4281 208.111 67.8597C216.493 76.7158 224.717 85.7544 233.244 94.4562C237.824 98.5264 242.022 102.849 246.22 107.354C245.467 105.361 244.636 103.649 243.17 102.147C233.297 91.593 223.37 81.0948 213.51 70.5264C211.094 68.0001 208.573 64.8983 205.537 63.2562C201.194 62.1194 199.03 65.5299 196.218 68.2808C184.496 81.2071 171.93 93.4316 160.75 106.877C159.667 106.344 158.572 105.797 157.489 105.249C171.376 90.6808 185.104 75.9299 198.911 61.2772C200.798 59.2141 203.042 57.8808 205.762 59.1018Z" fill="black"/>
<path d="M416.816 60.5334C424.142 60.8001 431.35 60.351 438.61 61.1089C440.18 65.6141 442.134 69.9089 444.259 74.1475C440.92 74.0913 437.593 74.0633 434.254 74.0212C433.237 70.1756 432.036 66.4843 430.465 62.8492C428.762 62.8352 427.046 62.8071 425.33 62.7791C425.436 66.5966 425.634 70.3861 425.99 74.1896C422.651 74.1054 419.324 74.0913 415.985 74.0913C416.592 69.572 416.896 65.0949 416.816 60.5334Z" fill="#FF9100"/>
<path d="M482.262 60.5193C489.68 60.8842 496.861 59.7473 503.765 61.6842C499.475 63.6491 495.172 63.5087 490.605 63.5508C490.803 67.0737 491.093 70.5965 491.568 74.1052C488.228 74.0772 484.889 74.0772 481.562 74.0912C482.104 69.5719 482.302 65.0807 482.262 60.5193Z" fill="#FF9300"/>
<path d="M536.065 60.6036C539.075 60.4492 542.058 60.5334 545.054 60.6176C543.774 65.7124 541.451 70.1054 536.923 72.6317C527.855 77.9369 515.684 73.7966 512.252 63.1018C515.262 62.0352 517.994 61.6422 521.162 61.6282C523.063 64.1264 524.792 66.0211 528.013 66.1194C532.039 66.344 533.966 63.7615 536.065 60.6036Z" fill="#FF9100"/>
<path d="M115.289 62.5264C120.516 63.2141 125.572 64.6176 130.64 66.1334C130.614 68.3229 130.588 70.5123 130.561 72.7018C129.268 72.9404 127.961 73.193 126.667 73.4316C123.143 69.4597 119.064 66.2036 115.289 62.5264Z" fill="#2C2B2B"/>
<path d="M130.654 61.7123C133.426 61.6982 136.211 61.6842 138.983 61.6702C139.036 65.0667 139.049 68.4632 138.838 71.8596C138.587 72.4351 138.31 73.0105 138.032 73.586C135.577 73.207 133.03 72.6877 130.561 72.7017C130.588 70.5123 130.614 68.3228 130.64 66.1333C130.64 64.6596 130.654 63.186 130.654 61.7123Z" fill="#FF8200"/>
<path d="M448.536 61.8246C451.44 61.7965 454.357 61.7824 457.261 61.8105C458.594 67.593 465.445 67.4526 467.055 61.8947C469.907 61.7965 472.771 61.7403 475.635 61.6702C475.53 66.021 474.289 69.993 470.752 72.4772C465.564 75.5789 458.476 75.7614 453.394 72.3509C449.935 69.8246 448.905 66.0772 448.536 61.8246Z" fill="#FF9000"/>
<path d="M97.6668 63.1018C99.8316 63.2001 101.864 65.4457 103.396 66.9053C114.352 78.6527 125.387 90.3018 136.343 102.049C137.98 103.733 138.97 105.783 139.907 107.944C135.564 103.2 131.274 98.5404 126.416 94.358C117.559 85.572 109.283 76.0843 100.544 67.1439C98.3268 65.0527 96.8484 64.1124 94.314 66.4562C84.678 75.8457 76.1245 86.6246 65.9869 95.4527C61.6573 99.0878 58.1989 103.495 54.7009 107.986L53.7769 107.958C55.9417 103.663 59.1757 100.576 62.4097 97.2352C71.7289 87.0317 81.3121 77.0948 90.6973 66.9615C92.7829 64.9966 94.5912 62.6527 97.6668 63.1018Z" fill="#8A8989"/>
<path d="M205.537 63.2561C208.573 64.8982 211.094 68 213.51 70.5263C223.37 81.0947 233.297 91.5929 243.17 102.147C244.636 103.649 245.467 105.361 246.22 107.354C242.022 102.849 237.824 98.5263 233.244 94.4561C224.717 85.7544 216.493 76.7157 208.111 67.8596C206.699 66.428 205.339 65.1929 203.32 64.9403C201.696 65.8526 200.297 67.0736 198.99 68.421C191.928 75.8736 185.051 83.5649 177.804 90.821C172.049 95.8877 166.624 100.954 162.03 107.27L160.75 106.877C171.93 93.4315 184.496 81.207 196.218 68.2807C199.03 65.5298 201.194 62.1193 205.537 63.2561Z" fill="#8B8A8A"/>
<path d="M140.976 66.8491C144.197 69.1088 147.299 71.3965 150.718 73.3193C156.433 76.1123 162.65 77.2632 168.458 79.8877C167.072 81.3895 165.686 82.8912 164.287 84.3789C154.849 81.4316 145.728 77.9789 136.079 75.8316L138.032 73.586C138.31 73.0105 138.587 72.4351 138.838 71.8596C139.59 70.2035 140.29 68.5333 140.976 66.8491Z" fill="#2C2C2C"/>
<path d="M159.324 67.1018C160.024 69.1229 160.776 71.1299 161.528 73.1369C163.442 73.2211 165.356 73.2913 167.284 73.3755C168.709 74.4281 170.148 75.4808 171.587 76.5334C170.531 77.6562 169.488 78.779 168.458 79.8878C162.65 77.2632 156.433 76.1123 150.718 73.3194C153.529 71.1439 156.328 68.9965 159.324 67.1018Z" fill="#1D1D1C"/>
<path d="M130.561 72.7017C133.03 72.6877 135.577 73.207 138.032 73.5859L136.079 75.8315C145.728 77.9789 154.849 81.4315 164.287 84.3789C160.446 88.4631 156.433 92.3087 152.486 96.2947C151.153 96.2666 149.807 96.2385 148.474 96.2105C141.266 88.5613 133.769 81.207 126.667 73.4315C127.961 73.1929 129.268 72.9403 130.561 72.7017Z" fill="#4B4948"/>
<path d="M83.1469 86.8773C91.5421 86.6668 99.9637 86.9054 108.372 86.7931C109.877 89.1089 111.421 91.3826 112.887 93.7405C104.28 94.7089 95.7529 94.1335 87.1201 94.372C84.4141 94.4703 81.9853 93.8106 79.4641 92.8843C80.6785 90.8773 81.8665 88.8282 83.1469 86.8773Z" fill="#FFE000"/>
<path d="M186.714 87.144C195.782 86.9615 206.316 85.6282 214.936 89.0668C218.909 90.6106 220.994 93.9369 222.658 97.8808C219.12 97.8808 215.596 97.7264 212.071 97.558C209.788 96.7159 207.055 95.0457 204.574 95.3966C202.171 96.2247 200.125 98.2036 197.828 99.3405C194.304 99.8598 190.661 99.565 187.123 99.6071C186.622 95.4668 186.437 91.3124 186.714 87.144Z" fill="#FFDF00"/>
<path d="M402.032 87.8596C409.596 87.5789 417.199 87.9017 424.776 87.7473C424.802 90.6525 424.842 93.5578 424.895 96.4771C420.288 96.042 415.721 95.9297 411.101 96.0561C411.088 97.8946 411.074 99.7192 411.048 101.544C408.184 101.235 405.319 100.912 402.455 100.631C402.613 96.3508 402.164 92.1262 402.032 87.8596Z" fill="#FFBF00"/>
<path d="M525.993 87.9018C534.27 87.593 542.612 87.7614 550.889 87.9158C550.862 90.8632 550.836 93.7965 550.809 96.7439C548.051 96.4632 545.279 96.2526 542.507 95.9719C542.52 97.6 542.533 99.2281 542.533 100.856C539.695 100.87 536.844 100.87 533.993 100.87C533.993 99.2 533.993 97.5158 533.993 95.8456C531.26 96.1404 528.528 96.4351 525.782 96.7298C525.795 93.7965 525.729 90.8211 525.993 87.9018Z" fill="#FFBF00"/>
<path d="M585.407 100.14C582.49 100.547 579.572 101.039 576.655 101.46C574.926 98.807 573.632 96.0421 570.227 95.8596C566.029 95.214 563.416 97.6 561.436 101.221C558.413 101.109 555.39 100.954 552.354 100.8C553.832 95.5368 556.367 90.9894 561.277 88.7158C570.9 84.1824 582.846 88.6736 585.407 100.14Z" fill="#FFBB00"/>
<path d="M299.996 87.6631C302.874 87.7754 305.752 87.8596 308.629 87.9017C310.781 91.9298 312.866 95.9859 315.071 99.9719C310.266 101.305 305.54 101.305 300.617 101.067C300.643 96.5894 300.392 92.1262 299.996 87.6631Z" fill="#FFB800"/>
<path d="M325.987 87.8738C328.838 87.7334 331.65 87.7474 334.488 87.7334C334.237 89.2913 333.986 90.8632 333.762 92.4211C333.3 95.3123 332.983 98.2176 332.812 101.137C328.126 101.151 323.479 101.011 318.806 100.702C321.222 96.4492 323.387 92.0001 325.987 87.8738Z" fill="#FFB800"/>
<path d="M340.164 87.7755C343.556 87.7895 346.936 87.7755 350.328 87.7615C350.09 89.7685 349.853 91.7615 349.628 93.7545C349.18 96.2667 348.638 98.765 348.124 101.263C346.17 101.235 344.23 101.235 342.276 101.235C341.788 97.8106 341.26 94.4001 340.679 90.9895L340.164 87.7755Z" fill="#FFB900"/>
<path d="M369.204 87.7753C376.108 88.1262 383.75 86.849 390.416 88.8139C395.736 91.0174 396.898 95.6911 396.95 101.333C393.492 100.94 390.931 101.235 388.463 98.3157C385.625 95.0315 382.404 95.9578 378.616 95.9017C378.55 97.5718 378.51 99.228 378.497 100.898C375.923 100.926 373.336 100.94 370.762 100.954C370.682 97.5999 370.326 94.3157 369.732 91.0174L369.204 87.7753Z" fill="#FFBD00"/>
<path d="M430.188 87.7895C436.801 88.0141 444.51 86.8913 450.806 89.2632C455.638 91.3404 457.591 95.7334 458.7 100.856C455.809 101.011 452.905 101.151 450.014 101.277C447.322 96.0983 444.893 95.8737 439.666 95.8457C439.428 101.783 439.402 107.761 439.481 113.712C439.006 111.79 438.438 109.895 437.884 108C435.534 107.944 433.211 107.804 430.874 107.649C430.676 100.997 431.059 94.4141 430.188 87.7895Z" fill="#FFB800"/>
<path d="M462.924 87.7894C470.62 87.7754 478.302 87.7613 485.998 87.7894C486.011 90.6806 486.037 93.5719 486.05 96.4631C481.642 96.1122 477.246 95.9438 472.811 95.9999L472.494 98.3157C470.131 98.2596 467.755 98.1473 465.392 98.0491C464.759 95.6631 464.086 93.2771 463.518 90.8771L462.924 87.7894Z" fill="#FFBF00"/>
<path d="M491.489 87.6492C494.353 87.7615 497.218 87.8316 500.082 87.9018C502.577 92.1404 505.124 96.3369 507.659 100.561C502.471 101.025 497.35 101.207 492.149 101.095C492.188 96.5895 491.898 92.1264 491.489 87.6492Z" fill="#FFB800"/>
<path d="M511.883 87.7473C515.183 87.7754 518.496 87.7894 521.796 87.7894C521.585 89.2912 521.374 90.7929 521.176 92.2947C520.608 96.3649 520.133 100.435 519.737 104.519C516.833 105.502 513.889 106.414 511.025 107.523L511.342 106.919C513.48 101.417 511.83 93.6842 511.883 87.7473Z" fill="#FFB500"/>
<path d="M589.802 87.7756C596.666 88.1124 604.243 86.8633 610.883 88.8001C615.978 90.765 617.271 95.3826 617.509 100.702C614.552 100.94 611.661 101.081 608.85 102.19C608.771 100.463 608.559 98.7931 608.203 97.151C605.84 95.5791 602.355 95.8598 599.663 95.7194L599.201 98.2036C596.891 101.558 594 100.758 590.515 101.291C590.581 96.744 590.357 92.2949 589.802 87.7756Z" fill="#FFBC00"/>
<path d="M340.679 90.9895C341.26 94.4 341.788 97.8105 342.276 101.235C344.23 101.235 346.17 101.235 348.124 101.263C348.638 98.7649 349.18 96.2667 349.628 93.7544C349.562 103.397 349.127 113.193 350.288 122.765C346.922 122.765 343.556 122.765 340.19 122.793C341.378 112.323 340.877 101.53 340.679 90.9895Z" fill="#FF9A00"/>
<path d="M369.732 91.0176C370.326 94.3158 370.682 97.6 370.762 100.954C370.841 104.225 370.933 107.481 371.065 110.751C377.995 110.807 384.899 110.975 391.829 110.428C393.584 114.582 395.446 118.681 397.267 122.807C394.033 122.779 390.786 122.765 387.552 122.793C386.364 119.088 385.229 115.382 383.962 111.705C382.127 111.621 380.292 111.537 378.444 111.467C378.563 115.256 378.787 119.018 379.196 122.779C375.87 122.765 372.557 122.751 369.23 122.779C370.458 112.309 369.89 101.544 369.732 91.0176Z" fill="#FF9000"/>
<path d="M463.518 90.8772C464.086 93.2772 464.759 95.6632 465.393 98.0491C467.755 98.1474 470.131 98.2597 472.494 98.3158C472.494 99.5088 472.507 100.702 472.534 101.909C476.362 101.839 480.19 101.726 484.018 101.572C484.018 103.972 484.031 106.358 484.031 108.744C480.216 108.632 476.401 108.575 472.573 108.547C472.481 110.512 472.389 112.477 472.323 114.442L472.138 114.232C469.775 110.568 469.339 110.877 465.287 110.877C464.719 113.768 464.112 116.646 463.492 119.509C463.888 110.091 463.94 100.295 463.518 90.8772Z" fill="#FFA800"/>
<path d="M79.4639 92.8843C81.9851 93.8106 84.4139 94.4702 87.1199 94.372C95.7527 94.1334 104.28 94.7088 112.886 93.7404C114.14 95.8738 115.236 98.1615 116.358 100.393C112.807 100.632 109.256 100.87 105.692 101.039C104.755 99.6632 103.818 98.2738 102.881 96.8983C98.6171 96.8702 94.0631 96.0843 89.8523 96.8562C87.3839 98.2176 85.7471 101.586 84.0575 103.874C80.2823 103.986 76.5203 103.916 72.7451 103.719C74.9363 100.07 77.2463 96.5053 79.4639 92.8843Z" fill="#FFCD01"/>
<path d="M333.762 92.4211C333.709 102.512 333.221 112.744 334.317 122.779C331.017 122.751 327.717 122.765 324.417 122.807L324.76 121.053C325.486 117.825 326.106 114.583 326.594 111.298C328.561 111.004 330.528 110.723 332.495 110.442C332.587 107.34 332.667 104.239 332.812 101.137C332.983 98.2176 333.3 95.3124 333.762 92.4211Z" fill="#FF9200"/>
<path d="M521.176 92.2947C520.938 102.428 520.542 112.73 521.783 122.793C518.932 122.779 516.08 122.765 513.242 122.765C510.391 118.302 507.5 113.853 504.583 109.446C506.854 109.067 508.9 108.477 511.025 107.523C513.889 106.414 516.833 105.502 519.737 104.519C520.133 100.435 520.608 96.3649 521.176 92.2947Z" fill="#FF9700"/>
<path d="M212.071 97.5579C215.596 97.7263 219.12 97.8807 222.658 97.8807C223.054 100.435 223.252 103.003 223.37 105.586C217.14 105.839 210.91 105.881 204.679 105.502C204.085 104.561 203.491 103.621 202.897 102.681C203.768 101.502 204.692 100.379 205.669 99.3122C207.847 98.7228 210.038 98.7087 212.071 97.5579Z" fill="#FFC000"/>
<path d="M388.463 98.3157C390.931 101.235 393.492 100.94 396.951 101.333C396.053 104.968 394.086 107.649 391.829 110.428C384.899 110.975 377.995 110.807 371.065 110.751C370.933 107.481 370.841 104.224 370.762 100.954C373.336 100.94 375.923 100.926 378.497 100.898L378.576 103.537C381.044 103.635 383.803 103.958 386.193 103.214C388.291 102.245 387.856 100.323 388.463 98.3157Z" fill="#FFA400"/>
<path d="M599.201 98.2036C599.135 100.056 599.095 101.909 599.069 103.762C602.488 103.79 605.656 103.607 608.85 102.19C611.662 101.081 614.552 100.94 617.509 100.702C616.796 104.716 614.777 107.481 612.374 110.498C605.088 110.933 597.802 110.667 590.515 110.962C590.502 107.747 590.489 104.519 590.515 101.291C594 100.758 596.891 101.558 599.201 98.2036Z" fill="#FFA400"/>
<path d="M315.071 99.9719C315.784 101.179 316.483 102.4 317.17 103.607C317.711 102.639 318.265 101.67 318.806 100.702C323.479 101.011 328.126 101.151 332.812 101.137C332.666 104.239 332.587 107.34 332.495 110.442C330.528 110.723 328.561 111.004 326.594 111.298C326.106 114.582 325.486 117.825 324.76 121.053C325.235 115.298 325.142 109.544 324.918 103.761C322.291 107.691 319.664 111.607 317.09 115.565C314.516 111.481 311.942 107.425 309.289 103.396C309.276 105.881 309.25 108.365 309.25 110.849C306.372 110.835 303.508 110.835 300.643 110.835C300.63 107.579 300.604 104.323 300.617 101.067C305.54 101.305 310.266 101.305 315.071 99.9719Z" fill="#FFA500"/>
<path d="M585.407 100.14C586.146 103.804 585.895 107.411 585.354 111.088C582.212 111.032 579.058 110.99 575.916 111.004C576.8 107.747 576.998 104.828 576.655 101.46C579.572 101.039 582.49 100.547 585.407 100.14Z" fill="#FFA500"/>
<path d="M402.455 100.632C405.319 100.912 408.183 101.235 411.048 101.544C414.981 101.937 418.915 101.825 422.849 101.558C422.822 103.972 422.796 106.372 422.769 108.772C418.902 108.618 415.047 108.575 411.18 108.575C411.206 110.568 411.233 112.561 411.259 114.554C415.879 114.709 420.341 114.512 424.934 113.909C424.829 116.87 424.749 119.846 424.683 122.821C424.248 120.323 423.825 117.825 423.403 115.326C416.275 115.761 409.503 114.147 402.481 113.333C402.441 109.095 402.349 104.87 402.455 100.632Z" fill="#FEA400"/>
<path d="M450.014 101.277C452.905 101.151 455.809 101.011 458.7 100.856C458.911 104.281 458.792 107.649 458.37 111.06C455.413 110.877 452.469 110.723 449.513 110.597C450.107 107.453 450.252 104.463 450.014 101.277Z" fill="#FFA500"/>
<path d="M492.149 101.095C497.349 101.207 502.471 101.025 507.659 100.562C508.913 102.667 510.127 104.786 511.342 106.919L511.025 107.523C508.9 108.477 506.854 109.067 504.583 109.446C503.342 107.551 502.088 105.684 500.821 103.818C500.768 106.162 500.729 108.491 500.702 110.835C497.851 110.849 495 110.877 492.149 110.891C492.149 107.621 492.135 104.365 492.149 101.095Z" fill="#FFA600"/>
<path d="M533.993 100.87C536.844 100.87 539.695 100.87 542.533 100.856C542.56 105.109 542.467 109.361 542.56 113.614C539.695 113.614 536.818 113.614 533.953 113.614C534.006 109.361 533.966 105.123 533.993 100.87Z" fill="#FFA300"/>
<path d="M552.354 100.8C555.39 100.954 558.413 101.109 561.436 101.221C560.987 104.744 561.198 107.635 562.135 111.018C558.967 110.961 555.812 110.947 552.644 110.975C552.169 107.551 552.077 104.253 552.354 100.8Z" fill="#FFA500"/>
<path d="M93.0204 103.018C101.112 102.947 109.256 102.611 117.335 103.018C119.909 102.779 120.872 106.232 122.364 107.972C121.189 109.853 120.014 111.747 118.853 113.656C113.837 113.361 108.874 112.842 103.831 113.151C100.228 113.151 96.4128 113.572 92.8356 112.912C91.3836 111.902 90.4728 109.811 89.3904 108.365C90.5784 106.568 91.7664 104.758 93.0204 103.018Z" fill="#FFAF00"/>
<path d="M156.948 105.81L157.489 105.249C158.572 105.796 159.667 106.344 160.75 106.877L162.03 107.27C169.739 109.417 177.976 111.046 185.222 114.582C187.321 116.996 185.922 120.884 185.856 123.86C180.919 122.596 175.943 121.417 171.085 119.846C167.442 116.688 164.419 112.954 161 109.572C161.832 111.41 162.756 113.179 164.076 114.667C171.376 122.807 178.728 130.905 186.133 138.933C190.529 143.593 192.535 148.702 197.736 152.154L195.149 151.663C183.757 139.509 172.313 127.368 160.657 115.495C157.832 112.575 155.998 110.302 156.948 105.81Z" fill="#161615"/>
<path d="M204.679 105.502C210.91 105.881 217.14 105.839 223.37 105.586C222.077 110.905 219.925 113.768 215.543 116.603C205.907 117.01 196.244 116.772 186.595 116.702C186.608 113.235 186.78 109.782 187.031 106.33C190.634 106.316 194.383 105.895 197.934 106.498C200.495 107.817 203.122 110.456 206.012 110.54C208.388 110.203 210.012 108.73 211.834 107.228C209.669 106.961 207.491 106.737 205.326 106.442L204.679 105.502Z" fill="#FFA400"/>
<path d="M49.5396 107.818C50.952 107.86 52.3644 107.902 53.7768 107.958L54.7008 107.986C60.1655 110.091 66.6732 113.291 72.6 112.716C74.3688 115.495 76.0452 118.302 77.6556 121.193C72.8244 123.326 69.0623 120.898 64.3896 119.607C61.0764 116.66 58.2516 113.193 54.714 110.498C55.7832 112.519 56.9316 114.428 58.4628 116.084C66.594 125.053 74.58 134.176 82.7112 143.144L80.5992 143.677C72.9432 134.793 64.5084 126.709 56.6016 118.063C53.6844 114.695 50.1468 112.702 49.5396 107.818Z" fill="#1B1B1A"/>
<path d="M430.874 107.649C433.211 107.804 435.534 107.944 437.884 108C438.438 109.895 439.006 111.79 439.481 113.712L439.652 114.905C443.876 114.456 446.82 114.54 449.513 110.597C452.47 110.723 455.413 110.877 458.37 111.06C456.918 115.116 455.202 118.737 451.334 120.702C445.262 124 436.775 122.4 430.056 122.779C430.848 117.684 431.112 112.814 430.874 107.649Z" fill="#FF9100"/>
<path d="M140.131 109.01C138.415 113.979 134.838 116.519 131.564 120.239C125.941 126.428 120.371 132.674 114.734 138.849C111.144 142.625 108.821 147.326 104.874 150.779L106.854 150.526C104.887 152.926 102.947 155.579 100.478 157.418C98.3531 159.284 94.7627 158.835 92.8619 156.786C88.5851 152.66 84.4139 148.295 80.5991 143.677L82.7111 143.144C74.5799 134.175 66.5939 125.053 58.4627 116.084C56.9315 114.428 55.7831 112.519 54.7139 110.498C58.2515 113.193 61.0763 116.66 64.3895 119.607C69.4319 124.421 74.1839 129.586 79.0283 134.639C81.2459 137.011 83.4767 139.368 85.7075 141.726C88.7567 144.814 91.5947 148.758 95.2511 151.003C99.5279 152.14 101.31 149.207 104.055 146.47C105.098 145.319 106.141 144.168 107.197 143.018C109.784 140.267 112.424 137.572 114.985 134.779C119.539 129.782 124.225 124.982 129.333 120.632C133.452 117.235 136.263 112.66 140.131 109.01Z" fill="#7D7D7D"/>
<path d="M161 109.572C164.419 112.954 167.442 116.688 171.085 119.846C181.447 129.881 191.347 140.533 201.313 151.017C203.702 150.751 206.078 151.453 207.86 149.446C211.385 146.147 214.619 142.47 217.998 138.975C220.968 135.831 223.964 132.716 226.908 129.53C230.023 126.063 233.468 123.017 236.914 119.93C240.623 116.73 243.157 112.463 246.906 109.333C244.253 114.821 238.96 118.919 235.013 123.565C226.67 132.14 219.41 141.782 211.121 150.414C208.996 151.817 206.818 153.389 204.508 154.414C202.198 154.344 199.914 152.912 197.736 152.154C192.535 148.702 190.529 143.593 186.133 138.933C178.728 130.905 171.376 122.807 164.076 114.667C162.756 113.179 161.832 111.41 161 109.572Z" fill="#959494"/>
<path d="M300.643 110.835C303.508 110.835 306.372 110.835 309.25 110.849C309.25 114.849 309.514 118.835 309.87 122.821C306.57 122.793 303.27 122.793 299.957 122.821C300.34 118.835 300.643 114.849 300.643 110.835Z" fill="#FF9200"/>
<path d="M465.287 110.877C469.339 110.877 469.775 110.569 472.138 114.232L472.322 114.442C476.929 114.877 481.47 114.484 486.064 113.979C486.064 116.912 486.064 119.832 486.077 122.751C478.328 122.765 470.567 122.737 462.805 122.765L463.492 119.509C464.112 116.646 464.719 113.769 465.287 110.877Z" fill="#FF8E00"/>
<path d="M492.149 110.891C495 110.877 497.851 110.849 500.702 110.835C500.689 114.835 500.94 118.821 501.257 122.807C497.957 122.793 494.657 122.793 491.357 122.807C491.779 118.849 492.122 114.891 492.149 110.891Z" fill="#FF9200"/>
<path d="M552.645 110.975C555.813 110.947 558.967 110.961 562.135 111.018C566.372 116.084 571.718 116.168 575.916 111.004C579.058 110.989 582.213 111.032 585.354 111.088C583.242 117.347 578.952 122.021 572.616 123.144C563.732 124.758 555.39 120.407 552.645 110.975Z" fill="#FF9000"/>
<path d="M590.515 110.961C597.802 110.667 605.088 110.933 612.374 110.498C614.196 114.568 615.991 118.667 617.707 122.807C614.46 122.779 611.226 122.779 607.979 122.793C606.91 119.032 605.801 115.312 604.441 111.663C602.593 111.607 600.745 111.551 598.91 111.481C599.029 115.27 599.254 119.018 599.636 122.779C596.31 122.765 592.97 122.751 589.644 122.779C590.225 118.849 590.542 114.947 590.515 110.961Z" fill="#FF9000"/>
<path d="M84.5857 111.761C85.9321 114.203 87.2917 116.646 88.6645 119.074C93.5881 119.06 98.4985 118.877 103.422 118.751C104.214 116.996 104.993 115.228 105.785 113.474L103.831 113.151C108.874 112.842 113.837 113.361 118.853 113.656C117.348 116.126 115.843 118.596 114.378 121.109C108.372 120.463 102.379 120.435 96.3601 120.547C90.2221 120.674 83.6881 120.07 77.6689 121.193H77.6557C76.0453 118.302 74.3689 115.495 72.6001 112.716C76.5865 112.112 80.5465 111.691 84.5857 111.761Z" fill="#FF9100"/>
<path d="M402.481 113.333C409.504 114.147 416.275 115.761 423.403 115.326C423.826 117.824 424.248 120.323 424.684 122.821C417.067 122.723 409.464 122.709 401.848 122.821C402.138 119.663 402.428 116.505 402.481 113.333Z" fill="#FF8D00"/>
<path d="M533.953 113.614C536.818 113.614 539.695 113.614 542.56 113.614C542.705 116.688 542.995 119.733 543.299 122.793C540.038 122.779 536.765 122.779 533.504 122.793C533.689 119.733 533.887 116.674 533.953 113.614Z" fill="#FF8F00"/>
<path d="M186.595 116.702C196.244 116.772 205.907 117.011 215.543 116.604C217.51 119.888 219.648 123.06 221.707 126.288C222.314 127.453 222.895 128.646 223.436 129.881C219.569 129.867 215.701 129.923 211.834 129.951C209.075 125.754 206.778 121.642 203.346 118.021C201.564 118.428 199.808 118.905 198.053 119.368C198.092 122.891 198.158 126.4 198.211 129.923C194.383 129.993 190.582 129.965 186.767 129.825C186.674 125.446 186.595 121.067 186.595 116.702Z" fill="#FF8200"/>
<path d="M203.346 118.021C206.778 121.642 209.075 125.754 211.834 129.951C215.701 129.923 219.569 129.867 223.436 129.881C222.895 128.646 222.314 127.453 221.707 126.288C223.423 127.396 225.179 128.435 226.908 129.53C223.964 132.716 220.968 135.832 217.998 138.975C209.392 136.603 200.93 133.909 192.482 130.947C194.396 130.639 196.297 130.288 198.211 129.923C198.158 126.4 198.092 122.891 198.053 119.368C199.808 118.905 201.564 118.428 203.346 118.021Z" fill="#252424"/>
<path d="M64.3896 119.607C69.0624 120.898 72.8245 123.326 77.6557 121.193H77.6689C79.0681 123.888 80.4936 126.568 81.9984 129.221C84.8892 129.235 87.7932 129.305 90.6972 129.46C94.7496 129.979 98.8021 130.302 102.868 130.624C107.012 130.989 111.184 133.081 114.985 134.779C112.424 137.572 109.784 140.267 107.197 143.017C98.1948 139.481 88.4928 136.337 79.0284 134.639C74.184 129.586 69.432 124.421 64.3896 119.607Z" fill="#373636"/>
<path d="M171.085 119.846C175.943 121.418 180.919 122.597 185.856 123.86C186.014 125.895 186.305 127.888 186.582 129.909C188.549 130.232 190.516 130.583 192.482 130.947C200.93 133.909 209.392 136.604 217.998 138.976C214.619 142.47 211.385 146.147 207.86 149.446C206.078 151.453 203.702 150.751 201.313 151.018C191.347 140.533 181.447 129.881 171.085 119.846Z" fill="#4A4846"/>
<path d="M77.6687 121.193C83.6879 120.07 90.2219 120.674 96.3599 120.547C102.379 120.435 108.372 120.463 114.378 121.109C112.781 123.888 111.249 126.723 109.731 129.544C103.382 129.558 97.0463 129.432 90.6971 129.46C87.7931 129.305 84.8891 129.235 81.9983 129.221C80.4935 126.568 79.0679 123.888 77.6687 121.193Z" fill="#FF7D00"/>
<path d="M79.0283 134.639C88.4927 136.337 98.1947 139.481 107.197 143.018C106.141 144.168 105.098 145.319 104.056 146.47C97.6271 145.951 91.9643 143.102 85.7075 141.726C83.4767 139.369 81.2459 137.011 79.0283 134.639Z" fill="#4F4F4E"/>
<path d="M85.7075 141.726C91.9643 143.102 97.6271 145.951 104.056 146.47C101.31 149.207 99.5279 152.14 95.2511 151.004C91.5947 148.758 88.7567 144.814 85.7075 141.726Z" fill="#626161"/>
<path d="M211.121 150.414L212.903 150.695C210.804 153.446 208.718 156.519 205.788 158.33C200.627 159.832 198.145 155.088 195.149 151.663L197.736 152.154C199.914 152.912 202.197 154.344 204.507 154.414C206.817 153.389 208.995 151.818 211.121 150.414Z" fill="#7E7E7E"/>
</g>
<defs>
<clipPath id="clip0_40_2">
<rect width="660" height="160" fill="white"/>
</clipPath>
</defs>
</svg>
